<svg xmlns="http://www.w3.org/2000/svg" width="955.746" height="205.6" viewBox="0 0 955.746 205.6">
  <g id="Layer_2" data-name="Layer 2" transform="translate(0.026)">
    <g id="Layer_1" data-name="Layer 1">
      <path id="Caminho_938" data-name="Caminho 938" d="M155.34,117.47a77.68,77.68,0,1,0-28.09,59.78v17.89h28.09V124.05H155A65.139,65.139,0,0,0,155.34,117.47ZM77.67,167.05a49.59,49.59,0,1,1,49.59-49.587A49.59,49.59,0,0,1,77.67,167.05Z" fill="#0d47a1"/>
      <path id="Caminho_939" data-name="Caminho 939" d="M409.8,117.47a77.68,77.68,0,1,0-28.09,59.78v17.89H409.8V124.05h-.3C409.68,121.88,409.8,119.69,409.8,117.47Zm-77.67,49.58a49.59,49.59,0,1,1,49.59-49.587,49.59,49.59,0,0,1-49.59,49.587Z" fill="#e65100"/>
      <path id="Caminho_940" data-name="Caminho 940" d="M282.54,0H254.45V57.68a77.67,77.67,0,1,0,28.09,59.79c0-2.23-.12-4.42-.3-6.59h.3ZM204.87,167.05a49.59,49.59,0,1,1,49.59-49.587,49.59,49.59,0,0,1-49.59,49.587Z" fill="#4a148c"/>
      <text id="REPOSITÓRIO_DIGITAL_FAETERJ-RIO" data-name="REPOSITÓRIO DIGITAL
FAETERJ-RIO" transform="translate(435.72 135.6)" fill="#4d413c" font-size="50.03" font-family="Ubuntu-Medium, Ubuntu" font-weight="500"><tspan x="0" y="0">REP</tspan><tspan y="0" letter-spacing="-0.01em">O</tspan><tspan y="0">SI</tspan><tspan y="0" letter-spacing="-0.02em">T</tspan><tspan y="0">ÓRIO DIGI</tspan><tspan y="0" letter-spacing="-0.06em">T</tspan><tspan y="0">AL</tspan><tspan x="0" y="60.04" letter-spacing="-0.05em">F</tspan><tspan y="60.04">AETE</tspan><tspan y="60.04" letter-spacing="0.02em">R</tspan><tspan y="60.04">J-RIO</tspan></text>
    </g>
  </g>
</svg>
