<?xml version="1.0" encoding="utf-8"?>
<!-- Generator: Adobe Illustrator 24.2.1, SVG Export Plug-In . SVG Version: 6.00 Build 0)  -->
<svg version="1.1" id="Layer_1" xmlns="http://www.w3.org/2000/svg" xmlns:xlink="http://www.w3.org/1999/xlink" x="0px" y="0px"
	 viewBox="0 0 800 800" style="enable-background:new 0 0 800 800;" xml:space="preserve">
<style type="text/css">
	.st0{fill:#E65100;}
	.st1{fill:#0D47A1;}
</style>
<path class="st0" d="M7.4,542.3c18,22.8,38,44,59.6,63.3c-0.1-1.9-0.3-3.7-0.3-5.6c0.3-69.2,43.1-131.2,107.8-155.9
	c17.2-6.5,25.9-25.8,19.4-43c-2.6-6.8-7.3-12.6-13.5-16.5c-29.3-18.1-47.1-50.2-46.9-84.6c-0.2-55,44.2-99.8,99.2-100
	c25.3-0.1,49.7,9.4,68.2,26.6c20.8-12,43.7-20,67.4-23.8c-53.5-74.8-157.5-92-232.3-38.5s-92,157.5-38.5,232.3
	c2.2,3.1,4.5,6.1,7,9.1C56.4,437.8,21.9,486.4,7.4,542.3L7.4,542.3z M792.6,542.3c-14.5-55.9-49-104.5-97-136.7
	c58.4-71,48.1-175.9-22.9-234.3s-175.9-48.1-234.3,22.9c-2.3,2.8-4.5,5.6-6.6,8.6c23.7,3.8,46.6,11.9,67.4,23.8
	c40.6-37.3,103.7-34.7,141,5.9c37.3,40.6,34.7,103.7-5.9,141c-4.5,4.2-9.4,7.9-14.6,11.1c-15.6,9.7-20.4,30.3-10.7,45.9
	c3.9,6.2,9.7,11,16.5,13.5c64.7,24.7,107.5,86.7,107.8,156c0,1.9-0.3,3.7-0.3,5.6C754.7,586.2,774.6,565.1,792.6,542.3z"/>
<path class="st1" d="M631.8,676.1c-7.3-69.3-45-131.7-102.8-170.5c24.5-29.7,37.8-67.1,37.7-105.7c-0.1-92-74.7-166.6-166.8-166.6
	s-166.6,74.7-166.6,166.8c0,38.5,13.3,75.7,37.7,105.5c-57.8,38.8-95.5,101.2-102.8,170.5c21.2,11,43.1,20.5,65.6,28.3
	c-0.1-1.5-0.5-2.9-0.5-4.4c0.3-69.2,43.1-131.2,107.8-155.9c17.2-6.5,25.9-25.7,19.4-43c-2.6-6.9-7.4-12.7-13.6-16.5
	c-29.3-18.1-47.1-50.1-46.9-84.6c0-55.2,44.8-100,100-100s100,44.8,100,100c0.2,34.4-17.6,66.5-46.9,84.6
	c-15.6,9.7-20.4,30.3-10.7,45.9c3.9,6.2,9.7,11,16.5,13.6c64.7,24.7,107.5,86.7,107.8,155.9c0,1.5-0.4,2.9-0.4,4.4
	C588.7,696.6,610.7,687.1,631.8,676.1L631.8,676.1z"/>
</svg>
