<svg xmlns="http://www.w3.org/2000/svg"  viewBox="0 0 100 100" width="100px" height="100px"><rect width="9.999" height="35.355" x="62.501" y="49.822" fill="#ff8405" transform="rotate(-45.001 67.5 67.501)"/><circle cx="41" cy="40" r="21" fill="#4b4dff"/><path fill="#4343bf" d="M41,62c-12.131,0-22-9.869-22-22s9.869-22,22-22s22,9.869,22,22S53.131,62,41,62z M41,24 c-8.822,0-16,7.178-16,16s7.178,16,16,16s16-7.178,16-16S49.822,24,41,24z"/><path fill="#3abcf8" d="M41,65.987c-6.658,0-13.316-2.534-18.385-7.602l7.07-7.072c6.238,6.238,16.391,6.238,22.629,0 c6.237-6.238,6.237-16.389-0.001-22.628l7.072-7.07c10.136,10.138,10.136,26.632,0,36.77C54.316,63.453,47.658,65.987,41,65.987z"/><path fill="#edf7f5" d="M49.803,48.025l-2.828-2.828c1.492-1.492,2.313-3.477,2.313-5.586c0-2.11-0.821-4.094-2.313-5.586 s-3.476-2.313-5.586-2.313c-2.109,0-4.094,0.821-5.586,2.313l-2.828-2.828c2.247-2.248,5.235-3.485,8.414-3.485 s6.167,1.237,8.414,3.485c2.248,2.247,3.485,5.235,3.485,8.414S52.051,45.778,49.803,48.025z"/></svg>